<svg width="190" height="40" viewBox="0 0 190 40" fill="none" xmlns="http://www.w3.org/2000/svg">
<rect x="0.5" y="0.5" width="39" height="39" rx="2.5" stroke="white" stroke-opacity="0.1"/>
<path opacity="0.7" d="M24 12H21.8182C20.8538 12 19.9288 12.4214 19.2469 13.1716C18.5649 13.9217 18.1818 14.9391 18.1818 16V18.4H16V21.6H18.1818V28H21.0909V21.6H23.2727L24 18.4H21.0909V16C21.0909 15.7878 21.1675 15.5843 21.3039 15.4343C21.4403 15.2843 21.6253 15.2 21.8182 15.2H24V12Z" stroke="white" stroke-width="1.5" stroke-linecap="round" stroke-linejoin="round"/>
<rect x="50" width="40" height="40" rx="3" fill="#206BAE"/>
<path d="M71.1126 19.0623L77.0379 27.5H77.0341L76.4746 26.7169L71.1919 19.3231L71.1919 19.3231L70.559 18.4373L70.559 18.4373L66.495 12.7491L66.3455 12.5397H66.0882H63.9201H62.99L62.9621 12.5H66.5045L70.486 18.1699L70.8511 18.6899L70.8511 18.6899L71.1126 19.0623ZM73.4929 27.2982L73.637 27.5H73.4955L69.2824 21.5005L68.9172 20.9805L68.4977 21.4577L63.1854 27.5H63.1054L68.6221 21.2256L68.8819 20.9301L68.6557 20.6081L65.3726 15.9327L68.5491 20.3787L68.5491 20.3787L69.0889 21.1341V21.1344L69.182 21.2649L73.4929 27.2982ZM76.3732 12.5L71.296 18.2749H71.216L71.2707 18.2127L76.2932 12.5H76.3732Z" stroke="white"/>
<rect x="100" width="40" height="40" rx="3" fill="#15181B" fill-opacity="0.1"/>
<rect x="100.5" y="0.5" width="39" height="39" rx="2.5" stroke="white" stroke-opacity="0.1"/>
<g opacity="0.7">
<path d="M123.2 17.0527C124.473 17.0527 125.694 17.5851 126.595 18.5326C127.495 19.4802 128 20.7653 128 22.1054V28.0001H124.8V22.1054C124.8 21.6587 124.632 21.2303 124.332 20.9144C124.032 20.5986 123.625 20.4212 123.2 20.4212C122.776 20.4212 122.369 20.5986 122.069 20.9144C121.769 21.2303 121.6 21.6587 121.6 22.1054V28.0001H118.4V22.1054C118.4 20.7653 118.906 19.4802 119.806 18.5326C120.706 17.5851 121.927 17.0527 123.2 17.0527Z" stroke="white" stroke-width="1.5" stroke-linecap="round" stroke-linejoin="round"/>
<path d="M115.2 17.895H112V28.0003H115.2V17.895Z" stroke="white" stroke-width="1.5" stroke-linecap="round" stroke-linejoin="round"/>
<path d="M113.6 15.3684C114.484 15.3684 115.2 14.6144 115.2 13.6842C115.2 12.754 114.484 12 113.6 12C112.716 12 112 12.754 112 13.6842C112 14.6144 112.716 15.3684 113.6 15.3684Z" stroke="white" stroke-width="1.5" stroke-linecap="round" stroke-linejoin="round"/>
</g>
<rect x="150" width="40" height="40" rx="3" fill="#15181B" fill-opacity="0.1"/>
<rect x="150.5" y="0.5" width="39" height="39" rx="2.5" stroke="white" stroke-opacity="0.1"/>
<g opacity="0.7">
<path d="M174 12H166C163.791 12 162 13.7909 162 16V24C162 26.2091 163.791 28 166 28H174C176.209 28 178 26.2091 178 24V16C178 13.7909 176.209 12 174 12Z" stroke="white" stroke-width="1.5" stroke-linecap="round" stroke-linejoin="round"/>
<path d="M173.199 19.4958C173.298 20.1615 173.184 20.8415 172.874 21.439C172.564 22.0364 172.074 22.5209 171.473 22.8235C170.871 23.1261 170.19 23.2314 169.526 23.1245C168.861 23.0176 168.247 22.7038 167.771 22.2279C167.295 21.7519 166.982 21.1381 166.875 20.4735C166.768 19.809 166.873 19.1277 167.176 18.5265C167.478 17.9252 167.963 17.4347 168.56 17.1247C169.158 16.8147 169.838 16.701 170.503 16.7998C171.183 16.9005 171.811 17.2169 172.297 17.7024C172.782 18.1879 173.099 18.8166 173.199 19.4958Z" stroke="white" stroke-width="1.5" stroke-linecap="round" stroke-linejoin="round"/>
<path d="M174.4 15.6001H174.408" stroke="white" stroke-width="1.5" stroke-linecap="round" stroke-linejoin="round"/>
</g>
</svg>
